<svg width="12" height="12" viewBox="0 0 12 12" fill="none" xmlns="http://www.w3.org/2000/svg">
<path fill-rule="evenodd" clip-rule="evenodd" d="M10.9497 2.46442C11.3403 2.0739 11.3403 1.44074 10.9497 1.05021C10.5592 0.659687 9.92606 0.659687 9.53553 1.05021L6 4.58575L2.46447 1.05021C2.07394 0.659687 1.44078 0.659687 1.05025 1.05021C0.659728 1.44074 0.659728 2.0739 1.05025 2.46442L4.58579 5.99996L1.05025 9.53549C0.659729 9.92602 0.659729 10.5592 1.05025 10.9497C1.44078 11.3402 2.07394 11.3402 2.46447 10.9497L6 7.41417L9.53553 10.9497C9.92606 11.3402 10.5592 11.3402 10.9497 10.9497C11.3403 10.5592 11.3403 9.92602 10.9497 9.53549L7.41421 5.99996L10.9497 2.46442Z" fill="#1B1D21"/>
</svg>
