<svg width="167" height="74" viewBox="0 0 167 74" fill="none" xmlns="http://www.w3.org/2000/svg">
<path fill-rule="evenodd" clip-rule="evenodd" d="M83.5 36.0407C83.4301 35.8868 83.3523 35.7175 83.2665 35.5337C82.8028 34.5405 82.1056 33.1241 81.169 31.4257C79.2966 28.0299 76.4642 23.5006 72.6246 18.9689C64.9502 9.91134 53.2035 0.792114 37.02 0.792114C16.5812 0.792114 0 17.127 0 37.2921C0 57.4572 16.5812 73.7921 37.02 73.7921C53.2035 73.7921 64.9502 64.6729 72.6246 55.6153C76.4642 51.0837 79.2966 46.5543 81.169 43.1585C82.1056 41.4601 82.8028 40.0438 83.2665 39.0505C83.3523 38.8667 83.4301 38.6974 83.5 38.5435C83.5699 38.6974 83.6477 38.8667 83.7335 39.0505C84.1972 40.0438 84.8944 41.4601 85.831 43.1585C87.7034 46.5543 90.5358 51.0837 94.3754 55.6153C102.05 64.6729 113.797 73.7921 129.98 73.7921C150.419 73.7921 167 57.4572 167 37.2921C167 17.127 150.419 0.792114 129.98 0.792114C113.797 0.792114 102.05 9.91134 94.3754 18.9689C90.5358 23.5006 87.7034 28.0299 85.831 31.4257C84.8944 33.1241 84.1972 34.5405 83.7335 35.5337C83.6477 35.7175 83.5699 35.8868 83.5 36.0407ZM37.02 1.79211C17.1199 1.79211 1 17.6927 1 37.2921C1 56.8915 17.1199 72.7921 37.02 72.7921C52.7915 72.7921 64.2848 63.9113 71.8616 54.9689C75.6476 50.5005 78.4438 46.0299 80.2933 42.6757C81.2178 40.9991 81.905 39.603 82.3604 38.6275C82.5881 38.1398 82.7578 37.7573 82.8703 37.4977C82.9051 37.4172 82.9345 37.3485 82.9584 37.2921C82.9345 37.2358 82.9051 37.167 82.8703 37.0865C82.7578 36.8269 82.5881 36.4445 82.3604 35.9568C81.905 34.9813 81.2178 33.5851 80.2933 31.9085C78.4438 28.5543 75.6476 24.0837 71.8616 19.6153C64.2848 10.6729 52.7915 1.79211 37.02 1.79211ZM84.1298 37.0865C84.0949 37.167 84.0655 37.2358 84.0416 37.2921C84.0655 37.3485 84.0949 37.4172 84.1298 37.4977C84.2422 37.7573 84.4119 38.1398 84.6396 38.6275C85.095 39.603 85.7822 40.9991 86.7067 42.6757C88.5563 46.0299 91.3524 50.5005 95.1384 54.9689C102.715 63.9113 114.208 72.7921 129.98 72.7921C149.88 72.7921 166 56.8915 166 37.2921C166 17.6927 149.88 1.79211 129.98 1.79211C114.208 1.79211 102.715 10.6729 95.1384 19.6153C91.3524 24.0837 88.5563 28.5543 86.7067 31.9085C85.7822 33.5851 85.095 34.9813 84.6396 35.9568C84.4119 36.4445 84.2422 36.8269 84.1298 37.0865Z" fill="#B7BABE"/>
<path d="M18.5 11.2921C21.2614 11.2921 23.5 9.05354 23.5 6.29211C23.5 3.53069 21.2614 1.29211 18.5 1.29211C15.7386 1.29211 13.5 3.53069 13.5 6.29211C13.5 9.05354 15.7386 11.2921 18.5 11.2921Z" fill="#191B1D"/>
<path fill-rule="evenodd" clip-rule="evenodd" d="M83.5 34.9518C83.4202 34.7986 83.3352 34.6383 83.2449 34.4718C82.4602 33.0243 81.2719 31.0906 79.6571 29.1521C76.4386 25.2883 71.424 21.2921 64.46 21.2921C55.643 21.2921 48.5 28.4581 48.5 37.2921C48.5 46.1262 55.643 53.2921 64.46 53.2921C71.424 53.2921 76.4386 49.2959 79.6571 45.4321C81.2719 43.4936 82.4602 41.5599 83.2449 40.1124C83.3352 39.9459 83.4202 39.7857 83.5 39.6324C83.5798 39.7857 83.6648 39.9459 83.7551 40.1124C84.5398 41.5599 85.7281 43.4936 87.3429 45.4321C90.5614 49.2959 95.576 53.2921 102.54 53.2921C111.357 53.2921 118.5 46.1262 118.5 37.2921C118.5 28.4581 111.357 21.2921 102.54 21.2921C95.576 21.2921 90.5614 25.2883 87.3429 29.1521C85.7281 31.0906 84.5398 33.0243 83.7551 34.4718C83.6648 34.6383 83.5798 34.7986 83.5 34.9518ZM64.46 23.2921C56.7526 23.2921 50.5 29.5576 50.5 37.2921C50.5 45.0266 56.7526 51.2921 64.46 51.2921C70.586 51.2921 75.0914 47.7883 78.1204 44.1521C79.6294 42.3406 80.7467 40.5243 81.4866 39.1593C81.856 38.4779 82.1298 37.912 82.3099 37.5195C82.3485 37.4355 82.3827 37.3596 82.4127 37.2921C82.3947 37.2517 82.3752 37.2081 82.3541 37.1616C82.3401 37.1306 82.3253 37.0983 82.3099 37.0647C82.1298 36.6722 81.856 36.1063 81.4866 35.4249C80.7467 34.0599 79.6294 32.2436 78.1204 30.4321C75.0914 26.7959 70.586 23.2921 64.46 23.2921ZM84.5873 37.2921C84.6173 37.3596 84.6515 37.4355 84.6901 37.5195C84.8702 37.912 85.144 38.4779 85.5134 39.1593C86.2533 40.5243 87.3706 42.3406 88.8796 44.1521C91.9086 47.7883 96.414 51.2921 102.54 51.2921C110.247 51.2921 116.5 45.0266 116.5 37.2921C116.5 29.5576 110.247 23.2921 102.54 23.2921C96.414 23.2921 91.9086 26.7959 88.8796 30.4321C87.3706 32.2436 86.2533 34.0599 85.5134 35.4249C85.144 36.1063 84.8702 36.6722 84.6901 37.0647C84.6515 37.1487 84.6173 37.2247 84.5873 37.2921Z" fill="#191B1D"/>
<path d="M159.5 62.2921C159.5 63.949 158.157 65.2921 156.5 65.2921C154.843 65.2921 153.5 63.949 153.5 62.2921C153.5 60.6353 154.843 59.2921 156.5 59.2921C158.157 59.2921 159.5 60.6353 159.5 62.2921Z" fill="#191B1D"/>
</svg>
