<svg width="91" height="85" viewBox="0 0 91 85" fill="none" xmlns="http://www.w3.org/2000/svg">
<path fill-rule="evenodd" clip-rule="evenodd" d="M90.8267 4.85981C91.0478 5.2427 90.7329 5.4883 90.418 5.7339C90.3731 5.76899 90.3281 5.80408 90.2847 5.83957C89.9031 6.15138 89.7342 6.51933 89.5667 6.88419C89.365 7.32356 89.1654 7.75845 88.599 8.08544C88.1078 8.36906 87.8897 8.4151 87.6601 8.46354C87.4053 8.51733 87.1364 8.57409 86.4639 8.96235C84.9962 9.80971 83.4445 12.145 82.7649 13.1817C82.3604 13.3321 83.3339 12.042 84.2082 10.8835C84.8502 10.0327 85.4387 9.25287 85.3887 9.16635C85.2707 8.962 82.513 10.8267 81.2958 12.1129C81.8021 10.6997 84.6139 9.09884 86.1698 8.21302L86.1702 8.21276C86.3187 8.12824 86.4557 8.05024 86.5781 7.97953C87.9841 7.16779 86.8577 6.84033 86.366 6.87417C86.1301 6.8904 86.0503 6.70144 85.9657 6.50133C85.8741 6.2843 85.7768 6.05416 85.469 6.05844C85.1915 6.0623 85.1429 5.91074 85.0915 5.7507C85.0334 5.56951 84.9718 5.37747 84.5706 5.38782C84.2313 5.39658 84.2707 5.28753 84.3157 5.16286C84.371 5.0099 84.4347 4.83342 83.8179 4.82215C83.2258 4.81133 83.2119 4.76982 83.1756 4.66201C83.1433 4.56597 83.0934 4.41733 82.6014 4.19092C82.111 3.96527 82.3402 3.9122 82.5482 3.86402C82.7833 3.80958 82.9914 3.76139 82.1043 3.47766C81.1614 3.17604 81.4419 3.06924 81.6686 2.98291C81.8439 2.91616 81.987 2.86165 81.5074 2.73877C80.8762 2.57709 80.952 2.47375 81.0353 2.36025C81.0971 2.27594 81.1631 2.18602 80.9464 2.06242C80.6559 1.89662 80.8319 1.81555 80.9733 1.75048C81.0791 1.70173 81.1655 1.66196 81.0216 1.60227C80.6855 1.46291 79.3554 -0.102977 80.6885 0.877731C82.0216 1.85844 84.0035 2.48697 84.9034 2.71752C85.8034 2.94807 86.8034 3.20424 87.3809 4.20445C87.9584 5.20466 89.0238 4.98388 89.4711 4.72561C89.9184 4.46734 90.5741 4.42222 90.8267 4.85981ZM10.6389 77.9723C10.6769 76.881 10.2857 76.7475 9.63562 76.5256C9.60079 76.5137 9.56522 76.5016 9.52893 76.489C10.0143 76.2277 10.841 75.5611 10.2648 74.9848L10.4473 74.5141L9.96081 74.7742C9.4518 74.5558 8.90318 74.9057 8.65774 75.1511C8.65774 75.1511 8.69899 74.7257 8.36284 74.3896C6.54476 73.0382 1.35993 74.5733 1.35993 74.5733C1.35993 74.5733 5.56737 75.4208 6.16137 76.0147C6.57592 76.4293 6.23714 76.7078 5.79953 77.0676C5.57812 77.2496 5.33142 77.4525 5.14418 77.7042C4.70918 78.2892 3.36255 79.1049 2.28877 79.7554C1.49563 80.2358 0.851354 80.6261 0.833252 80.7666C1.46246 80.5649 2.29645 80.1114 3.002 79.7278C3.72303 79.3357 4.30991 79.0166 4.40701 79.1137C4.59912 79.3058 3.00568 80.419 1.55086 81.2975C1.74295 81.4896 4.34148 79.9815 5.16861 79.4086C5.74408 79.0101 5.76858 79.0093 6.00058 79.0018C6.10204 78.9985 6.24318 78.9939 6.48745 78.9542C6.77269 78.9078 6.97357 78.8124 7.14197 78.7325C7.44756 78.5874 7.6462 78.4931 8.04781 78.8345C8.85137 79.5177 8.69323 84.2399 8.69323 84.2399C8.69323 84.2399 10.5162 81.4896 10.6389 77.9723ZM63.2954 71.572C63.3043 71.3427 63.3128 71.1253 63.5607 70.831C63.6531 70.7212 63.8627 70.3458 63.8892 70.2301L64.1731 69.6879L63.8059 69.6305C63.5406 69.3651 63.3005 69.1618 62.8593 69.3035C62.6304 69.377 62.5699 69.4528 62.4931 69.5489C62.465 69.5841 62.4347 69.622 62.3932 69.6635C62.0222 69.3269 61.2469 68.5172 61.1138 67.971C60.9474 67.2883 60.0467 66.4909 57.9885 65.2588C57.8478 65.1746 57.7078 65.0906 57.5695 65.0076C55.6853 63.8772 54.1171 62.9363 55.3036 64.1229C55.9544 64.7737 56.0386 64.9657 56.0994 65.1045C56.1577 65.2373 56.1945 65.3214 56.6862 65.7121C57.2351 66.1482 57.0607 66.1688 56.9266 66.1847C56.8151 66.1979 56.7315 66.2078 57.1151 66.4507C57.6447 66.7861 57.8439 67.0346 58.102 67.3565C58.2555 67.548 58.4299 67.7655 58.7071 68.0427C59.1302 68.4659 59.2286 68.7317 59.3134 68.9607C59.3774 69.1337 59.4337 69.2856 59.6164 69.4684C59.9031 69.755 59.0818 69.9021 58.2671 70.0479L58.267 70.0479L58.2669 70.048C57.875 70.1181 57.4846 70.188 57.2198 70.273C53.6241 71.4276 51.1844 72.9121 51.0323 73.2764C50.9863 73.3867 51.1875 73.318 51.5952 73.1787C52.5336 72.8581 54.5662 72.1637 57.1968 72.4187C59.2421 72.7084 60.0238 72.4574 60.0238 72.4574C60.0238 72.4574 60.0847 73.3929 59.734 74.233C59.7098 74.291 59.6754 74.3728 59.6324 74.4745C59.1364 75.6501 57.5156 79.4909 57.6687 80.1193C57.7296 80.3692 57.8791 79.9191 58.1204 79.1925C58.5383 77.934 59.2317 75.846 60.2174 75.1295C60.1328 76.5938 60.1471 77.6409 60.6893 79.0092C60.687 78.8423 60.6819 78.6397 60.6763 78.4153C60.6525 77.4661 60.619 76.1263 60.7452 75.4507C60.9557 74.3241 61.4857 73.8521 62.1464 73.2635C62.3378 73.0931 62.5401 72.9128 62.7489 72.7041C63.2717 72.1813 63.2839 71.8668 63.2954 71.572ZM83.0099 45.5217C83.4406 45.7704 83.1988 46.6154 83.1988 46.6154C84.0233 46.3945 84.765 47.3939 85.528 48.4219C85.7269 48.69 85.9273 48.96 86.131 49.2108C87.205 50.5334 88.7478 53.3471 88.0284 52.6036C87.7101 52.2747 87.3073 52.0478 86.8787 51.8065C86.3383 51.5022 85.7569 51.1748 85.2523 50.5906C84.8885 50.1694 82.392 48.157 81.7968 48.7597C80.9224 49.645 80.3204 51.301 80.0112 52.1516L80.0112 52.1517C79.8824 52.5059 79.8044 52.7204 79.7787 52.6814C79.7405 52.6236 79.9189 52.0827 80.117 51.4821C80.3733 50.705 80.6626 49.8278 80.5584 49.7677C80.3812 49.6654 79.8055 50.3947 79.3003 51.0347C78.9285 51.5057 78.5948 51.9284 78.4864 51.9354C78.399 51.941 78.6254 51.6191 78.9618 51.141L78.9619 51.1408C79.609 50.2209 80.6631 48.7226 80.6727 47.8645C80.6786 47.3339 80.5349 47.1686 80.1681 46.7466C80.0059 46.56 79.8 46.3231 79.5441 45.9822C78.8681 45.0815 77.7123 44.229 76.7797 43.541C76.6579 43.4512 76.54 43.3642 76.4274 43.2802C75.4523 42.5532 79.4217 43.7783 80.5909 44.4533C81.76 45.1283 82.1268 45.9144 82.1268 45.9144C82.1268 45.9144 82.6653 45.3227 83.0099 45.5217ZM40.6231 40.4211C40.7655 39.9973 40.9078 39.5735 41.4059 39.7148C41.9039 39.8561 41.9751 40.2799 41.6905 40.633C41.4059 40.9862 41.5482 41.6219 42.6866 41.5513C43.0681 41.5276 43.441 41.5533 43.8486 41.5814C44.6576 41.6371 45.6038 41.7022 47.0271 41.41C47.0511 41.4051 47.0951 41.3948 47.1529 41.3812C47.6633 41.2615 49.2452 40.8905 47.5193 41.7789C46.8315 42.2733 44.7359 43.4867 42.9713 43.5997C42.2854 43.6437 41.7716 43.6466 41.3677 43.6489C40.4725 43.6541 40.1173 43.6561 39.627 44.0942C39.5004 44.2072 39.3222 44.3493 39.1109 44.5176C38.1343 45.296 36.4534 46.6355 35.9269 48.2616C35.2865 50.2394 35.7076 47.5709 36.2057 46.8646C36.2843 46.7531 36.372 46.6376 36.4627 46.5182C36.9467 45.8808 37.5185 45.1277 37.2789 44.2354C36.9942 43.1759 35.9922 42.7677 34.6403 42.9797C33.2883 43.1916 34.575 42.4146 37.2789 42.6971C39.7008 42.9502 39.1494 42.5799 38.8035 42.3477C38.7633 42.3206 38.7258 42.2955 38.6961 42.2734C38.4115 42.0615 37.6288 41.4963 36.6326 41.2138C35.6365 40.9312 34.0769 39.7854 34.0057 38.4434C33.9733 37.8326 34.0736 37.9387 34.3668 38.2489C34.7179 38.6204 35.3457 39.2847 36.3538 39.3616C36.6007 39.3805 36.8272 39.3958 37.0357 39.41C38.3898 39.5018 38.9855 39.5422 39.4788 40.1543C39.9312 40.7156 40.4503 40.4947 40.6198 40.4225L40.6231 40.4211Z" fill="#191B1D"/>
</svg>
