<svg width="22" height="16" viewBox="0 0 22 16" fill="none" xmlns="http://www.w3.org/2000/svg">
<path d="M11 0.792114C6 0.792114 1.73 3.90211 0 8.29211C1.73 12.6821 6 15.7921 11 15.7921C16 15.7921 20.27 12.6821 22 8.29211C20.27 3.90211 16 0.792114 11 0.792114ZM11 13.2921C8.24 13.2921 6 11.0521 6 8.29211C6 5.53211 8.24 3.29211 11 3.29211C13.76 3.29211 16 5.53211 16 8.29211C16 11.0521 13.76 13.2921 11 13.2921ZM11 5.29211C9.34 5.29211 8 6.63211 8 8.29211C8 9.95211 9.34 11.2921 11 11.2921C12.66 11.2921 14 9.95211 14 8.29211C14 6.63211 12.66 5.29211 11 5.29211Z" fill="black"/>
</svg>
